<?xml version="1.0" standalone="no"?>
<!DOCTYPE svg PUBLIC "-//W3C//DTD SVG 20010904//EN"
 "http://www.w3.org/TR/2001/REC-SVG-20010904/DTD/svg10.dtd">
<svg version="1.0" xmlns="http://www.w3.org/2000/svg"
 width="294.000000pt" height="294.000000pt" viewBox="0 0 294.000000 294.000000"
 preserveAspectRatio="xMidYMid meet">
<metadata>
Created by potrace 1.16, written by Peter Selinger 2001-2019
</metadata>
<g transform="translate(0.000000,294.000000) scale(0.100000,-0.100000)"
fill="#000000" stroke="none">
<path d="M1775 2698 c-43 -15 -94 -56 -116 -92 l-19 -32 -72 8 c-126 15 -312
-7 -453 -53 -33 -11 -101 -41 -152 -66 l-92 -46 -105 27 c-58 14 -107 26 -110
26 -7 0 -69 -261 -63 -266 7 -7 226 -63 248 -64 11 0 22 25 39 93 13 50 27
100 32 110 5 9 41 33 81 53 154 78 306 114 481 114 146 0 156 -3 156 -47 0
-63 53 -138 122 -174 44 -23 133 -25 181 -6 18 8 47 26 64 41 l32 27 46 -31
c125 -86 243 -224 321 -372 24 -49 47 -88 49 -88 16 0 55 26 55 36 0 19 -77
162 -118 219 -54 74 -178 200 -253 256 -66 49 -67 49 -62 92 15 126 -92 248
-217 246 -25 0 -58 -5 -75 -11z m161 -93 c90 -69 73 -200 -33 -254 -32 -16
-83 -13 -123 7 -107 53 -106 203 1 260 53 28 107 24 155 -13z m-1148 -245 c48
-12 47 -5 21 -101 l-9 -37 -61 16 -61 15 6 38 c10 64 24 91 44 85 9 -3 37 -10
60 -16z"/>
<path d="M1365 2234 c-62 -10 -148 -36 -203 -60 -62 -27 -152 -82 -152 -93 0
-3 9 -17 19 -30 l19 -24 51 31 c119 73 233 105 376 105 281 -1 544 -181 641
-439 l24 -64 -39 -20 c-131 -66 -160 -236 -59 -346 22 -24 48 -46 59 -49 25
-8 24 -17 -12 -91 -62 -125 -179 -240 -314 -306 -251 -125 -549 -85 -766 103
l-56 48 -23 -25 -24 -24 30 -31 c75 -80 217 -160 345 -195 89 -25 289 -25 378
0 230 63 416 220 512 431 27 59 31 64 69 70 58 10 129 62 157 114 63 120 -5
283 -132 316 -46 11 -46 12 -79 93 -94 231 -284 402 -521 466 -61 17 -245 28
-300 20z m916 -667 c67 -44 88 -135 47 -197 -36 -52 -69 -72 -120 -72 -112 0
-183 100 -142 200 34 86 140 120 215 69z"/>
<path d="M472 1968 c-83 -170 -114 -305 -116 -505 l-1 -143 -36 -25 c-48 -32
-89 -113 -89 -175 0 -65 43 -147 98 -185 35 -24 55 -30 113 -33 l69 -4 38 -57
c46 -70 169 -200 243 -257 318 -244 745 -297 1120 -139 46 19 88 35 94 35 5 0
52 -16 104 -36 51 -19 94 -34 95 -32 9 13 94 253 91 256 -2 2 -60 25 -128 52
l-125 48 -40 -107 c-45 -121 -55 -130 -192 -176 -392 -131 -822 -25 -1099 271
-34 36 -78 90 -98 120 l-36 55 31 32 c126 131 53 350 -126 375 l-47 7 -3 105
c-5 174 30 335 109 492 l39 77 -22 16 c-13 8 -28 15 -34 15 -7 0 -30 -37 -52
-82z m48 -720 c149 -77 70 -305 -95 -274 -45 9 -101 57 -115 101 -29 89 46
193 140 195 14 0 46 -10 70 -22z m1625 -599 c30 -11 55 -26 55 -34 0 -7 -9
-34 -20 -60 -22 -52 -26 -52 -104 -20 -29 12 -36 20 -31 33 4 9 14 36 22 60 8
23 17 42 19 42 2 0 28 -9 59 -21z"/>
<path d="M1391 1962 c-58 -29 -72 -58 -76 -156 -2 -73 0 -90 15 -104 10 -9 20
-26 24 -38 3 -11 20 -34 37 -50 25 -24 39 -29 79 -29 40 0 54 5 79 29 17 16
34 39 37 50 4 12 14 29 24 38 26 24 20 179 -7 217 -27 37 -80 61 -133 61 -25
0 -60 -8 -79 -18z"/>
<path d="M1421 1506 c-10 -11 -9 -22 5 -47 12 -24 15 -48 11 -92 -5 -58 15
-147 33 -147 19 0 39 92 33 150 -4 45 -2 64 12 88 15 26 16 33 6 46 -17 20
-84 21 -100 2z"/>
<path d="M1252 1495 c-74 -14 -108 -36 -136 -91 -18 -34 -21 -60 -24 -206 l-3
-168 380 0 381 0 0 158 c0 149 -1 161 -25 208 -14 27 -37 58 -52 68 -34 25
-150 48 -161 32 -4 -6 -34 -90 -67 -186 -42 -122 -65 -175 -75 -175 -11 0 -33
53 -75 177 -33 97 -64 181 -70 186 -6 5 -35 4 -73 -3z"/>
</g>
</svg>
