<?xml version="1.0" standalone="no"?>
<!DOCTYPE svg PUBLIC "-//W3C//DTD SVG 20010904//EN"
 "http://www.w3.org/TR/2001/REC-SVG-20010904/DTD/svg10.dtd">
<svg version="1.0" xmlns="http://www.w3.org/2000/svg"
 width="294.000000pt" height="294.000000pt" viewBox="0 0 294.000000 294.000000"
 preserveAspectRatio="xMidYMid meet">
<metadata>
Created by potrace 1.16, written by Peter Selinger 2001-2019
</metadata>
<g transform="translate(0.000000,294.000000) scale(0.100000,-0.100000)"
fill="#000000" stroke="none">
<path d="M1393 2449 c-111 -55 -135 -204 -46 -291 79 -77 187 -74 262 7 84 91
58 231 -51 284 -56 27 -111 27 -165 0z m148 -44 c40 -21 69 -71 69 -120 0 -76
-59 -135 -135 -135 -103 0 -167 109 -120 201 32 62 121 87 186 54z"/>
<path d="M782 2229 c-89 -44 -126 -154 -82 -244 68 -140 266 -134 331 10 23
51 23 89 0 140 -22 48 -54 79 -103 100 -51 21 -95 19 -146 -6z m154 -48 c60
-36 81 -127 44 -188 -69 -114 -250 -63 -250 70 0 107 116 173 206 118z"/>
<path d="M2015 2232 c-63 -29 -115 -105 -115 -167 0 -31 25 -90 51 -120 85
-96 242 -77 298 37 75 155 -82 321 -234 250z m136 -47 c40 -21 69 -71 69 -120
0 -77 -59 -135 -137 -135 -71 0 -133 63 -133 135 0 41 30 95 64 116 38 23 97
24 137 4z"/>
<path d="M1377 2076 c-58 -21 -116 -65 -148 -113 -35 -51 -68 -168 -51 -185
20 -20 39 0 46 48 11 85 73 165 155 200 46 20 146 21 192 1 46 -19 105 -71
126 -111 10 -17 22 -56 28 -86 9 -44 16 -55 31 -55 16 0 19 6 17 47 -5 92 -67
185 -154 233 -64 35 -179 45 -242 21z"/>
<path d="M769 1857 c-97 -36 -168 -110 -195 -204 -19 -66 -16 -98 11 -98 16 0
21 9 26 46 9 61 40 119 85 159 52 45 93 60 168 60 124 0 223 -80 248 -202 12
-59 32 -84 48 -58 23 37 -27 167 -85 223 -57 55 -118 81 -200 84 -41 2 -85 -2
-106 -10z"/>
<path d="M1982 1854 c-60 -22 -145 -103 -169 -161 -24 -57 -34 -115 -23 -133
16 -26 36 -1 48 58 25 122 124 202 248 202 75 0 116 -15 168 -60 45 -40 76
-98 85 -159 5 -37 10 -46 26 -46 17 0 20 6 18 48 -3 95 -68 188 -166 239 -55
28 -174 34 -235 12z"/>
<path d="M725 1575 c-32 -69 -62 -128 -66 -130 -4 -3 -67 -14 -141 -25 -73
-11 -139 -23 -147 -26 -10 -3 20 -39 93 -113 l108 -109 -25 -143 c-14 -79 -22
-148 -18 -152 4 -4 67 24 139 62 l131 69 130 -69 c72 -38 133 -69 136 -69 3 0
5 10 5 23 1 16 -40 61 -140 157 -109 105 -140 141 -140 161 0 47 25 57 210 84
167 24 176 27 207 57 18 18 30 35 26 39 -5 4 -60 15 -123 24 -63 8 -128 18
-143 21 -24 5 -36 23 -92 135 -36 71 -71 129 -78 129 -7 0 -39 -56 -72 -125z"/>
<path d="M2075 1571 c-55 -112 -68 -130 -92 -135 -39 -8 -234 -36 -250 -36
-22 0 -15 -25 15 -53 25 -24 44 -29 202 -52 185 -27 210 -37 210 -84 0 -20
-30 -55 -140 -161 -100 -96 -140 -141 -140 -157 0 -13 2 -23 5 -23 3 0 64 31
136 69 l130 70 132 -70 c72 -38 134 -66 138 -61 4 4 -4 72 -18 151 l-25 145
106 105 c59 57 103 108 99 112 -5 4 -70 17 -147 28 -76 12 -142 23 -146 26 -4
2 -33 61 -65 130 -32 69 -64 125 -72 125 -7 0 -42 -58 -78 -129z"/>
<path d="M1370 1489 c-52 -105 -98 -192 -101 -195 -4 -2 -101 -18 -215 -35
-115 -17 -213 -34 -218 -39 -4 -5 63 -78 150 -163 l158 -154 -36 -214 c-20
-118 -33 -218 -28 -223 4 -4 94 37 199 93 105 56 193 101 196 101 3 0 91 -45
196 -101 106 -56 195 -97 199 -93 5 5 -7 104 -28 223 l-36 214 158 154 c91 88
155 158 150 163 -5 5 -103 22 -218 39 -115 18 -211 33 -215 35 -3 3 -49 90
-101 195 -52 105 -99 191 -105 191 -6 0 -53 -86 -105 -191z"/>
</g>
</svg>
