<?xml version="1.0" standalone="no"?>
<!DOCTYPE svg PUBLIC "-//W3C//DTD SVG 20010904//EN"
 "http://www.w3.org/TR/2001/REC-SVG-20010904/DTD/svg10.dtd">
<svg version="1.0" xmlns="http://www.w3.org/2000/svg"
 width="294.000000pt" height="294.000000pt" viewBox="0 0 294.000000 294.000000"
 preserveAspectRatio="xMidYMid meet">
<metadata>
Created by potrace 1.16, written by Peter Selinger 2001-2019
</metadata>
<g transform="translate(0.000000,294.000000) scale(0.100000,-0.100000)"
fill="#000000" stroke="none">
<path d="M478 2293 c-8 -10 -73 -172 -143 -360 -103 -273 -126 -345 -116 -356
17 -21 159 -69 181 -62 20 6 25 19 191 458 73 194 91 252 83 265 -9 15 -140
70 -170 71 -6 1 -18 -7 -26 -16z"/>
<path d="M2267 2257 c-42 -23 -80 -50 -83 -60 -3 -11 55 -134 162 -340 91
-177 171 -328 177 -334 16 -21 39 -15 123 30 55 29 80 48 82 63 3 18 -309 634
-339 670 -18 22 -38 17 -122 -29z"/>
<path d="M1238 2260 c-21 -5 -82 -32 -135 -60 -141 -73 -195 -77 -255 -20 -37
36 -72 39 -92 8 -8 -13 -55 -131 -104 -263 -49 -132 -101 -269 -116 -304 -42
-104 -44 -99 102 -255 l64 -68 21 20 20 21 -91 96 -91 96 19 47 c10 26 62 164
116 308 l98 261 44 -31 c37 -27 53 -31 106 -31 56 0 73 6 176 59 93 48 124 59
165 60 28 0 57 -3 65 -6 9 -5 25 0 39 11 l24 19 -30 16 c-41 21 -99 27 -145
16z"/>
<path d="M1540 2217 c-112 -47 -414 -246 -511 -337 -43 -41 -49 -51 -49 -87 0
-49 23 -81 65 -89 24 -4 59 9 170 64 77 38 178 90 224 116 46 25 91 46 101 46
22 0 227 -219 650 -693 18 -20 250 232 250 273 0 6 -70 146 -156 310 l-155
298 -46 -20 c-61 -27 -91 -20 -199 49 -154 98 -236 115 -344 70z"/>
<path d="M1762 1368 c-7 -7 -12 -17 -12 -22 1 -6 50 -65 110 -131 123 -135
137 -164 104 -224 -23 -42 -62 -60 -98 -43 -13 6 -80 72 -147 146 -68 75 -129
136 -135 136 -19 0 -27 -39 -13 -58 8 -9 43 -51 79 -92 102 -116 110 -129 110
-172 0 -53 -46 -102 -90 -96 -23 3 -31 -1 -40 -20 -14 -31 -10 -35 44 -36 55
-1 93 24 123 83 12 24 24 48 25 53 2 5 15 5 32 -2 66 -25 158 31 172 105 l6
35 48 -6 c51 -7 93 9 130 48 24 27 42 86 31 105 -7 14 -21 2 -82 -74 -13 -17
-54 -26 -83 -19 -13 3 -77 67 -151 151 -70 80 -133 145 -139 145 -7 0 -17 -5
-24 -12z"/>
<path d="M792 1291 c-65 -48 -77 -116 -29 -168 28 -31 74 -30 117 2 68 50 80
117 31 166 -37 37 -67 37 -119 0z"/>
<path d="M1050 1219 c-50 -45 -95 -90 -100 -100 -28 -51 3 -130 55 -143 36 -9
68 11 168 106 75 72 87 87 87 116 0 39 -23 87 -45 96 -48 18 -74 6 -165 -75z"/>
<path d="M1239 1078 c-139 -127 -156 -165 -103 -227 20 -24 34 -31 60 -31 30
0 50 14 144 101 61 55 115 109 120 119 33 62 -8 140 -75 140 -31 0 -49 -13
-146 -102z"/>
<path d="M1473 967 c-12 -7 -46 -38 -74 -70 -65 -73 -74 -117 -34 -165 21 -25
34 -32 63 -32 32 0 44 8 99 66 60 63 69 83 64 134 -3 29 -23 58 -48 69 -30 14
-42 13 -70 -2z"/>
</g>
</svg>
