<svg height="395pt" preserveAspectRatio="xMidYMid meet" viewBox="0 0 395 395" width="395pt" xmlns="http://www.w3.org/2000/svg"><path d="m1563 3847c-160-41-289-79-298-88-15-14-11-35 38-233l55-217-42-21c-76-38-200-124-283-196-46-40-85-72-89-72-3 0-77 43-164 95s-165 95-172 95c-8 0-22-8-30-17-30-34-318-525-318-543 0-24 16-36 175-130 77-46 144-86 148-90s-4-51-17-106c-29-114-46-239-46-335v-67l-177-43c-97-24-186-51-197-61l-21-16 69-279c90-360 84-341 105-352 12-7 68 3 192 34 96 25 181 45 190 45 10 0 32-26 53-62 48-82 111-166 191-255 36-39 65-75 65-78 0-4-45-82-100-174-67-112-99-173-94-185 8-22 533-336 561-336 18 0 41 32 119 162 53 90 103 169 110 177 10 11 23 11 81-2 112-27 182-37 298-44l111-6 39-156c55-225 63-249 84-256 26-8 610 139 629 159 15 15 12 33-32 214-27 108-51 202-53 207-2 6 45 42 104 81 60 39 143 104 186 144 69 64 80 72 100 63 12-6 98-56 191-112 152-91 171-100 189-88 11 7 87 127 169 266l148 253v234 234l-402 2-403 3-178 265c-135 203-182 266-200 268-32 3-167-93-167-120 0-11 84-144 186-295 103-152 189-283 191-293 7-28-92-163-185-251-288-274-706-334-1067-154-328 164-525 482-525 850 0 426 291 801 707 912 132 36 345 37 467 4 103-27 216-77 291-126 71-47 201-169 240-225l27-39 249 125c137 68 249 128 249 132 0 16-98 149-155 211-32 33-55 67-52 73 2 7 50 89 106 182 61 100 101 177 99 189-4 29-539 351-568 342-13-4-59-72-122-178-56-95-102-173-103-174-1-2-54 11-119 27-65 17-175 36-244 43l-126 12-52 208c-28 114-57 214-64 222s-24 15-39 14c-14 0-153-33-308-72z" transform="matrix(.1 0 0 -.1 0 395)"/></svg>