<svg width="145" height="33" viewBox="0 0 145 33" fill="none" xmlns="http://www.w3.org/2000/svg">
<path d="M22.705 15.7352C23.805 14.4702 24.43 12.9652 24.43 11.3702C24.43 5.39021 19.95 0.970215 10.35 0.970215C4.845 0.970215 0.75 2.57022 0.75 2.57022L2.19 6.41022C2.19 6.41022 5.135 4.81022 10.35 4.81022C15.565 4.81022 20.59 6.31021 20.59 11.3702C20.59 12.1302 20.39 12.7602 20.035 13.2902C16.115 10.2852 11.09 8.49522 7.15 8.49522C4.915 8.49522 1.55 9.62022 1.55 12.8102C1.55 17.9152 9.405 19.3702 13.55 19.3702C15.88 19.3702 17.97 18.8652 19.685 18.0152C21.28 19.7452 22.35 21.8552 22.35 24.3302C22.35 28.1302 18.35 28.9702 16.11 28.9702C10.03 28.9702 6.515 24.8652 5.39 22.4102L1.71 23.3702V32.0102H5.55V28.8102C5.55 28.8102 9.41 32.9702 16.11 32.9702C22.515 32.9702 26.35 29.2002 26.35 24.3302C26.35 21.0852 24.905 18.1602 22.705 15.7352ZM5.55 13.1302C5.55 11.5152 11.515 12.3152 16.34 15.3052C11.89 16.1502 5.55 14.5502 5.55 13.1302Z" fill="#1A1A1A"/>
<path d="M29.3086 4.53525C29.3086 2.95525 30.5036 1.76025 32.0836 1.76025C33.6636 1.76025 34.8586 2.95525 34.8586 4.53525C34.8586 6.07025 33.6636 7.31025 32.0836 7.31025C30.5036 7.30525 29.3086 6.07025 29.3086 4.53525ZM30.0736 32.0103V10.6753H34.0436V32.0103H30.0736Z" fill="#1A1A1A"/>
<path d="M42.4783 28.5953H55.1483V32.0103H37.7383V28.5953L49.6833 14.1303H38.5483V10.6753H54.7183V13.7903L42.4783 28.5953Z" fill="#1A1A1A"/>
<path d="M62.26 28.5951H74.93V32.0101H57.52V28.5951L69.465 14.13H58.33V10.675H74.5V13.79L62.26 28.5951Z" fill="#1A1A1A"/>
<path d="M95.9683 19.8505V32.0105H92.2133V28.2555C90.6783 30.9855 88.0333 32.5655 84.5783 32.5655C80.1833 32.5655 77.2383 30.0055 77.2383 26.2105C77.2383 21.9455 80.9933 19.3005 86.9233 19.3005C88.6283 19.3005 90.4233 19.5155 91.9983 19.9405V19.8555C91.9983 16.2705 90.7633 13.6705 87.0083 13.6705C84.1083 13.6705 82.2733 15.2055 82.9133 18.0205H78.7733C77.6233 13.4105 81.5883 10.1255 87.0483 10.1255C93.0233 10.1205 95.9683 14.0055 95.9683 19.8505ZM92.1283 23.2205C90.6783 22.7505 88.8833 22.4955 87.2233 22.4955C83.4283 22.4955 81.3333 23.9905 81.3333 26.2505C81.3333 28.1255 82.7833 29.1955 85.1733 29.1955C88.6733 29.1955 91.5333 26.8905 92.1283 23.2205Z" fill="#1A1A1A"/>
<path d="M121.436 21.3455C121.436 28.0855 117.381 32.5655 111.751 32.5655C108.506 32.5655 105.991 31.1155 104.411 28.5955V32.0105H100.441V2.14551H104.411V14.0905C105.991 11.5755 108.506 10.1205 111.751 10.1205C117.426 10.1205 121.436 14.6455 121.436 21.3455ZM117.256 21.3455C117.256 16.6955 114.651 13.6655 110.811 13.6655C106.886 13.6655 104.281 16.7805 104.281 21.3455C104.281 25.9105 106.886 29.0255 110.766 29.0255C114.696 29.0255 117.256 25.9105 117.256 21.3455Z" fill="#1A1A1A"/>
<path d="M123.675 21.3452C123.675 14.6452 127.9 10.1252 134.215 10.1252C140.53 10.1252 144.755 14.6502 144.755 21.3452C144.755 28.0452 140.53 32.5652 134.215 32.5652C127.9 32.5652 123.675 28.0402 123.675 21.3452ZM140.57 21.3452C140.57 16.7352 138.055 13.6652 134.215 13.6652C130.42 13.6652 127.86 16.7352 127.86 21.3452C127.86 25.9102 130.42 29.0252 134.215 29.0252C138.055 29.0252 140.57 25.9102 140.57 21.3452Z" fill="#1A1A1A"/>
</svg>
