<svg id="Layer_1" data-name="Layer 1" xmlns="http://www.w3.org/2000/svg" viewBox="0 0 589.68 134.64"><defs><style>.cls-1{fill:#ff2746;}.cls-2{fill:#080a52;}</style></defs><path class="cls-1" d="M153.06,9.71,111.78,81.2a6.27,6.27,0,0,1-10.86,0,6.3,6.3,0,0,1,0-6.26l10.23-17.71a6.27,6.27,0,0,0,0-6.27h0a6.27,6.27,0,0,0-10.86,0l-3,5.17a6.27,6.27,0,1,1-10.86-6.26L108.92,11a6.25,6.25,0,0,1,5.42-3.13,6.16,6.16,0,0,1,3.13.84,6.26,6.26,0,0,1,2.3,8.56l-5,8.66a6.27,6.27,0,0,0,0,6.27h0a6.27,6.27,0,0,0,10.85,0L142.2,3.44A6.27,6.27,0,0,1,147.63.3a6.18,6.18,0,0,1,3.14.85A6.26,6.26,0,0,1,153.06,9.71Z"/><path class="cls-1" d="M82.84,125.09,12.61,3.44A6.27,6.27,0,0,0,4.05,1.15h0a6.27,6.27,0,0,0-2.3,8.56L72,131.35a6.27,6.27,0,0,0,10.86,0h0A6.25,6.25,0,0,0,82.84,125.09Z"/><path class="cls-1" d="M97.32,100,45.9,11a6.26,6.26,0,0,0-8.56-2.29h0A6.27,6.27,0,0,0,35,17.23l51.42,89.05a6.27,6.27,0,0,0,10.86,0h0A6.3,6.3,0,0,0,97.32,100Z"/><path class="cls-1" d="M208.61,108.39a6.89,6.89,0,0,1,1.37,2.26,8.45,8.45,0,0,1,.44,2.85,8.1,8.1,0,0,1-2.86,6.38,10.36,10.36,0,0,1-7.1,2.51,13.33,13.33,0,0,1-3.92-.6,15,15,0,0,1-3.37-1.48l-.89,1.51h-1.65l-.29-10H192a23.29,23.29,0,0,0,1.21,3.35A11.73,11.73,0,0,0,195,118a8.23,8.23,0,0,0,2.5,1.93,7.32,7.32,0,0,0,3.33.72,7.48,7.48,0,0,0,2.48-.37,4.15,4.15,0,0,0,2.7-2.65,6.45,6.45,0,0,0,.32-2.11,5.87,5.87,0,0,0-1-3.27,6.07,6.07,0,0,0-2.95-2.3c-.89-.36-1.91-.75-3.07-1.18s-2.14-.84-3-1.22a9.64,9.64,0,0,1-3.84-2.91,7.59,7.59,0,0,1-1.37-4.71,7.06,7.06,0,0,1,.68-3.1,8.13,8.13,0,0,1,1.93-2.58,9,9,0,0,1,2.82-1.68,9.78,9.78,0,0,1,3.4-.6,10,10,0,0,1,3.62.61A18,18,0,0,1,206.53,94l.84-1.4H209l.17,9.69h-1.67c-.3-1.11-.64-2.17-1-3.19A11.74,11.74,0,0,0,205,96.32a6.77,6.77,0,0,0-2.16-1.9,6.44,6.44,0,0,0-3.13-.71A4.81,4.81,0,0,0,196.4,95,4,4,0,0,0,195,98a5.27,5.27,0,0,0,.88,3.14,6.5,6.5,0,0,0,2.58,2c1,.48,2,.9,3,1.25s1.91.72,2.82,1.12a20.37,20.37,0,0,1,2.37,1.22A8.72,8.72,0,0,1,208.61,108.39Z"/><path class="cls-1" d="M231.59,117a10.36,10.36,0,0,1-3.42,3.87,8.58,8.58,0,0,1-4.92,1.44,10.11,10.11,0,0,1-4.29-.86,8.49,8.49,0,0,1-3-2.35,9.88,9.88,0,0,1-1.78-3.46,14.66,14.66,0,0,1-.59-4.18,12.27,12.27,0,0,1,.63-3.88,10.91,10.91,0,0,1,1.84-3.43,9.13,9.13,0,0,1,2.92-2.36,8.36,8.36,0,0,1,3.9-.89,9.36,9.36,0,0,1,3.81.7,6.67,6.67,0,0,1,2.57,1.91,7.59,7.59,0,0,1,1.42,2.72,12.2,12.2,0,0,1,.46,3.4V111H217.65a16.25,16.25,0,0,0,.38,3.63,8.84,8.84,0,0,0,1.21,2.87,5.63,5.63,0,0,0,2.1,1.89,6.47,6.47,0,0,0,3.09.69,5.73,5.73,0,0,0,3.16-.86,8.51,8.51,0,0,0,2.56-3.1ZM227,109.28a16.88,16.88,0,0,0-.19-2.47,7.81,7.81,0,0,0-.63-2.19,4.16,4.16,0,0,0-1.3-1.54,3.52,3.52,0,0,0-2.12-.6,4.4,4.4,0,0,0-3.59,1.8,8.29,8.29,0,0,0-1.56,5Z"/><path class="cls-1" d="M249.49,104.11A3.34,3.34,0,0,1,249,106a1.75,1.75,0,0,1-1.58.82,2.39,2.39,0,0,1-1.76-.6,1.81,1.81,0,0,1-.61-1.32,4.11,4.11,0,0,1,.07-.82c0-.25.09-.5.14-.75a4.58,4.58,0,0,0-2.27.79,6.58,6.58,0,0,0-2.2,2.22v11.82a2.32,2.32,0,0,0,.27,1.18,1.7,1.7,0,0,0,.88.67,5.44,5.44,0,0,0,1.33.31q.81.1,1.41.15v1.36H233.94v-1.36l1-.08a3.94,3.94,0,0,0,.87-.17,1.47,1.47,0,0,0,.86-.65,2.34,2.34,0,0,0,.28-1.2V105.81a2.83,2.83,0,0,0-.3-1.25,2.53,2.53,0,0,0-.84-1,3,3,0,0,0-.92-.36,8,8,0,0,0-1.16-.15V101.7l6.76-.46.29.29v2.87h.1a9.23,9.23,0,0,1,2.84-2.54,6.07,6.07,0,0,1,2.86-.86,2.79,2.79,0,0,1,2.11.84A3.12,3.12,0,0,1,249.49,104.11Z"/><path class="cls-1" d="M261.06,121.8h-9.8v-1.36l1-.08a4.06,4.06,0,0,0,.87-.17,1.47,1.47,0,0,0,.86-.65,2.34,2.34,0,0,0,.27-1.2V105.81a2.53,2.53,0,0,0-.29-1.2,2.73,2.73,0,0,0-.84-.92,4.08,4.08,0,0,0-1.13-.42,8.22,8.22,0,0,0-1.36-.21V101.7l7.17-.46.28.29v16.56a2.42,2.42,0,0,0,.28,1.2,1.61,1.61,0,0,0,.87.69,5.83,5.83,0,0,0,1.84.46Zm-2.57-28.56a3,3,0,0,1-.78,2,2.42,2.42,0,0,1-1.9.88,2.39,2.39,0,0,1-1.82-.84,2.7,2.7,0,0,1-.78-1.9,2.83,2.83,0,0,1,.78-2,2.39,2.39,0,0,1,1.82-.84,2.52,2.52,0,0,1,1.92.79A2.57,2.57,0,0,1,258.49,93.24Z"/><path class="cls-1" d="M283.38,111.44a13.21,13.21,0,0,1-.68,4.21,10.08,10.08,0,0,1-1.93,3.51,9,9,0,0,1-3.3,2.45,10.54,10.54,0,0,1-4.21.8,9.45,9.45,0,0,1-3.69-.73,9.09,9.09,0,0,1-3.11-2.13,10.29,10.29,0,0,1-2.14-3.36,12.17,12.17,0,0,1-.79-4.46,11.13,11.13,0,0,1,2.77-7.79,10.17,10.17,0,0,1,14.31-.15A10.53,10.53,0,0,1,283.38,111.44Zm-4.26,0a18,18,0,0,0-.31-3.26,10.56,10.56,0,0,0-.93-2.92,5.8,5.8,0,0,0-1.73-2,4.41,4.41,0,0,0-2.62-.77,4.63,4.63,0,0,0-2.71.78A5.83,5.83,0,0,0,269,105.4a9.58,9.58,0,0,0-.93,2.87,18.77,18.77,0,0,0-.27,3.11,19.84,19.84,0,0,0,.32,3.65,11,11,0,0,0,1,3,5.83,5.83,0,0,0,1.77,2.07,4.44,4.44,0,0,0,2.63.75,4.58,4.58,0,0,0,4.08-2.49A13.25,13.25,0,0,0,279.12,111.48Z"/><path class="cls-1" d="M308.07,121.43l-6.63.45-.31-.29V119H301c-.33.34-.7.71-1.11,1.1a7.84,7.84,0,0,1-1.42,1.06,8.94,8.94,0,0,1-1.79.84,7.78,7.78,0,0,1-2.44.29,4.9,4.9,0,0,1-4.1-1.76,8,8,0,0,1-1.41-5.11v-9.71a2.58,2.58,0,0,0-.28-1.24,2.63,2.63,0,0,0-.82-.88,2.82,2.82,0,0,0-.93-.36,10.73,10.73,0,0,0-1.19-.15v-1.36l6.78-.5.31.29v14.11a4.88,4.88,0,0,0,1,3.32,3.05,3.05,0,0,0,2.36,1.11,5.52,5.52,0,0,0,2-.35,6,6,0,0,0,1.49-.83,6.51,6.51,0,0,0,1-.91,5,5,0,0,0,.65-.9V105.59a2.41,2.41,0,0,0-.29-1.21,2.81,2.81,0,0,0-.8-.89,2.19,2.19,0,0,0-1.1-.3l-1.64-.09v-1.36l7.39-.5.31.29v16.11a2.33,2.33,0,0,0,.29,1.19,2.61,2.61,0,0,0,.81.85,2.13,2.13,0,0,0,.88.29c.34,0,.72.08,1.13.1Z"/><path class="cls-1" d="M324,111.85a5.12,5.12,0,0,1,1.3,1.71,5.6,5.6,0,0,1,.45,2.37,5.75,5.75,0,0,1-2.11,4.61,8.19,8.19,0,0,1-5.47,1.79,8.1,8.1,0,0,1-3.26-.64,8.49,8.49,0,0,1-2.13-1.17l-.41,1.34h-1.55l-.2-7.06H312a7.73,7.73,0,0,0,.7,1.87,9,9,0,0,0,1.29,2,7.5,7.5,0,0,0,1.93,1.53,5.17,5.17,0,0,0,2.52.62,4.61,4.61,0,0,0,3.05-.9,3.21,3.21,0,0,0,1.07-2.58,3.08,3.08,0,0,0-.34-1.5,3.35,3.35,0,0,0-1-1.1,7.87,7.87,0,0,0-1.67-.85c-.66-.26-1.39-.51-2.2-.76a18.85,18.85,0,0,1-2.15-.79,8.4,8.4,0,0,1-2-1.18,5.78,5.78,0,0,1-1.48-1.77,5,5,0,0,1-.58-2.47,5.6,5.6,0,0,1,1.85-4.23,7,7,0,0,1,5-1.72,10.44,10.44,0,0,1,2.44.3,8.69,8.69,0,0,1,2,.75l.47-1.08h1.48l.31,6.53h-1.42a6.56,6.56,0,0,0-1.86-3.56,4.85,4.85,0,0,0-3.49-1.38,3.86,3.86,0,0,0-2.66.85,2.63,2.63,0,0,0-1,2,3.39,3.39,0,0,0,.32,1.55,2.82,2.82,0,0,0,1,1,8.28,8.28,0,0,0,1.55.77c.63.24,1.4.51,2.32.81a20.36,20.36,0,0,1,2.56,1A8.33,8.33,0,0,1,324,111.85Z"/><path class="cls-1" d="M338.3,121.8h-9.9v-1.36l1-.09a5.19,5.19,0,0,0,.88-.16,1.5,1.5,0,0,0,.87-.65,2.27,2.27,0,0,0,.29-1.2V94.8a3.15,3.15,0,0,0-.32-1.39,2.75,2.75,0,0,0-.84-1,4.37,4.37,0,0,0-1.36-.45,12.35,12.35,0,0,0-1.58-.25V90.37l7.64-.45.29.31v27.86a2.43,2.43,0,0,0,.26,1.18,1.69,1.69,0,0,0,.87.71,4.57,4.57,0,0,0,.9.31,6.48,6.48,0,0,0,1,.15Z"/><path class="cls-1" d="M339.31,128.43a2.44,2.44,0,0,1,.57-1.68,1.8,1.8,0,0,1,1.41-.65,2.33,2.33,0,0,1,1.13.25,2.9,2.9,0,0,1,.84.63,4.55,4.55,0,0,1,.66.84c.24.35.42.64.56.88a8.17,8.17,0,0,0,2.46-2.9,23.9,23.9,0,0,0,2.07-4.11c-1.3-3.25-2.49-6.16-3.54-8.73s-2.16-5.22-3.32-8a3,3,0,0,0-1.31-1.47,5.58,5.58,0,0,0-1.86-.67v-1.36h9.27v1.44a6.9,6.9,0,0,0-1.48.26c-.58.16-.86.34-.86.55a1.61,1.61,0,0,0,.09.41c.06.19.13.39.21.59q.78,2,2.39,5.88t2.48,6.14q.93-2.2,1.93-4.56c.67-1.57,1.41-3.42,2.24-5.56.09-.26.23-.62.41-1.08a3.37,3.37,0,0,0,.27-1.19c0-.35-.32-.68-.94-1a5.64,5.64,0,0,0-1.78-.57v-1.32h7.54v1.28a5,5,0,0,0-1.63.71,3.71,3.71,0,0,0-1.5,1.72q-2.44,5.68-4.36,10.36c-1.27,3.11-2.23,5.41-2.89,6.87a36,36,0,0,1-2.32,4.5,13.8,13.8,0,0,1-2,2.55,6.09,6.09,0,0,1-1.72,1.16,4.41,4.41,0,0,1-1.6.3,3.87,3.87,0,0,1-2.52-.76A2.24,2.24,0,0,1,339.31,128.43Z"/><path class="cls-1" d="M385.18,122.5a12.69,12.69,0,0,1-5-1,13,13,0,0,1-4.25-3,14.5,14.5,0,0,1-2.92-4.73,17.13,17.13,0,0,1-1.09-6.3,18,18,0,0,1,1.07-6.35,14.89,14.89,0,0,1,3-4.92,13,13,0,0,1,4.43-3.15,14.24,14.24,0,0,1,9.36-.58A14.65,14.65,0,0,1,393.06,94l.84-1.4h1.65l.19,10.42h-1.69a24.52,24.52,0,0,0-1-3.31,12.91,12.91,0,0,0-1.54-3,7.51,7.51,0,0,0-2.35-2.19,6,6,0,0,0-3.1-.79,8,8,0,0,0-3.72.88,8.56,8.56,0,0,0-3,2.62,13,13,0,0,0-1.87,4.25,22.62,22.62,0,0,0-.68,5.75,17.79,17.79,0,0,0,.71,5.14,13.16,13.16,0,0,0,2,4.11,9.75,9.75,0,0,0,3.11,2.74,8.21,8.21,0,0,0,4,1,8.59,8.59,0,0,0,5.49-1.91,11,11,0,0,0,3.08-4.58l1.55.74a11.54,11.54,0,0,1-11.65,8.08Z"/><path class="cls-1" d="M414.41,104.11a3.42,3.42,0,0,1-.51,1.86,1.76,1.76,0,0,1-1.59.82,2.41,2.41,0,0,1-1.76-.6,1.85,1.85,0,0,1-.61-1.32,4.07,4.07,0,0,1,.08-.82c.05-.25.09-.5.13-.75a4.58,4.58,0,0,0-2.26.79,6.7,6.7,0,0,0-2.21,2.22v11.82a2.31,2.31,0,0,0,.28,1.18,1.7,1.7,0,0,0,.88.67,5.35,5.35,0,0,0,1.32.31q.82.1,1.41.15v1.36h-10.7v-1.36l1-.08a4,4,0,0,0,.88-.17,1.45,1.45,0,0,0,.85-.65,2.24,2.24,0,0,0,.28-1.2V105.81a2.83,2.83,0,0,0-.3-1.25,2.51,2.51,0,0,0-.83-1,3,3,0,0,0-.93-.36,7.82,7.82,0,0,0-1.15-.15V101.7l6.75-.46.29.29v2.87h.11a9.12,9.12,0,0,1,2.84-2.54,6,6,0,0,1,2.86-.86,2.81,2.81,0,0,1,2.11.84A3.15,3.15,0,0,1,414.41,104.11Z"/><path class="cls-1" d="M434.18,117a10.36,10.36,0,0,1-3.42,3.87,8.58,8.58,0,0,1-4.92,1.44,10.11,10.11,0,0,1-4.29-.86,8.49,8.49,0,0,1-3-2.35,10.05,10.05,0,0,1-1.78-3.46,14.66,14.66,0,0,1-.59-4.18,12.27,12.27,0,0,1,.63-3.88,10.91,10.91,0,0,1,1.84-3.43,9.13,9.13,0,0,1,2.92-2.36,8.36,8.36,0,0,1,3.9-.89,9.36,9.36,0,0,1,3.81.7,6.67,6.67,0,0,1,2.57,1.91,7.59,7.59,0,0,1,1.42,2.72,12.2,12.2,0,0,1,.46,3.4V111H420.24a16.25,16.25,0,0,0,.38,3.63,8.84,8.84,0,0,0,1.21,2.87,5.63,5.63,0,0,0,2.1,1.89,6.47,6.47,0,0,0,3.09.69,5.73,5.73,0,0,0,3.16-.86,8.51,8.51,0,0,0,2.56-3.1Zm-4.55-7.74a16.88,16.88,0,0,0-.19-2.47,7.81,7.81,0,0,0-.63-2.19,4.16,4.16,0,0,0-1.3-1.54,3.52,3.52,0,0,0-2.12-.6,4.4,4.4,0,0,0-3.59,1.8,8.29,8.29,0,0,0-1.56,5Z"/><path class="cls-1" d="M455.76,121.43c-.64.23-1.21.42-1.7.56a5.59,5.59,0,0,1-1.65.22,4.07,4.07,0,0,1-2.57-.75,3.48,3.48,0,0,1-1.22-2.2h-.13a10,10,0,0,1-2.87,2.27,8.06,8.06,0,0,1-3.7.78,5.19,5.19,0,0,1-3.75-1.4,4.82,4.82,0,0,1-1.48-3.66,6.17,6.17,0,0,1,.33-2.1,5,5,0,0,1,1-1.67,4.89,4.89,0,0,1,1.36-1.1,11.57,11.57,0,0,1,1.59-.78c.61-.23,1.87-.66,3.76-1.29a27,27,0,0,0,3.81-1.49v-2a7.67,7.67,0,0,0-.11-1,4.45,4.45,0,0,0-.48-1.44,4.06,4.06,0,0,0-1.17-1.32,3.46,3.46,0,0,0-2.13-.57,4.66,4.66,0,0,0-1.76.32,3.07,3.07,0,0,0-1.14.67,5.69,5.69,0,0,0,.2,1.21,6.32,6.32,0,0,1,.19,1.48,1.77,1.77,0,0,1-.65,1.32,2.54,2.54,0,0,1-1.8.6,1.67,1.67,0,0,1-1.51-.73,2.85,2.85,0,0,1-.49-1.64,3,3,0,0,1,.67-1.81,6.93,6.93,0,0,1,1.74-1.55,9.82,9.82,0,0,1,2.25-1,8.7,8.7,0,0,1,2.57-.4,16.8,16.8,0,0,1,3,.23,5.59,5.59,0,0,1,2.34,1,4.73,4.73,0,0,1,1.59,2.07,8.73,8.73,0,0,1,.55,3.37c0,2,0,3.7-.07,5.22s-.06,3.17-.06,5a2.58,2.58,0,0,0,.28,1.28,2.31,2.31,0,0,0,.86.8,2.05,2.05,0,0,0,1,.21l1.37,0Zm-7.18-10.88c-1.17.35-2.19.68-3.07,1a13.09,13.09,0,0,0-2.45,1.24,5.59,5.59,0,0,0-1.63,1.66,4.21,4.21,0,0,0-.6,2.28,3.2,3.2,0,0,0,.9,2.52,3.27,3.27,0,0,0,2.27.81,4.71,4.71,0,0,0,2.58-.71,7.6,7.6,0,0,0,1.87-1.69Z"/><path class="cls-1" d="M470.32,120.91c-.89.37-1.73.68-2.53.94a9.85,9.85,0,0,1-2.92.38,4.39,4.39,0,0,1-3.6-1.29,5.66,5.66,0,0,1-1-3.63V103.55h-3.66v-2h3.75V95.25h3.74v6.32h5.83v2H464.1V114.9a18.09,18.09,0,0,0,.1,2.13,4,4,0,0,0,.44,1.49,2.14,2.14,0,0,0,1,.91,4.32,4.32,0,0,0,1.77.31c.34,0,.85,0,1.51-.1a7,7,0,0,0,1.41-.23Z"/><path class="cls-1" d="M482.18,121.8h-9.8v-1.36l1-.08a3.83,3.83,0,0,0,.87-.17,1.47,1.47,0,0,0,.86-.65,2.24,2.24,0,0,0,.28-1.2V105.81a2.43,2.43,0,0,0-.3-1.2,2.73,2.73,0,0,0-.84-.92,4,4,0,0,0-1.13-.42,8.06,8.06,0,0,0-1.36-.21V101.7l7.17-.46.29.29v16.56a2.42,2.42,0,0,0,.27,1.2,1.69,1.69,0,0,0,.87.69,5.73,5.73,0,0,0,.88.3,5.34,5.34,0,0,0,1,.16Zm-2.57-28.56a3,3,0,0,1-.77,2,2.44,2.44,0,0,1-1.91.88,2.4,2.4,0,0,1-1.82-.84,2.69,2.69,0,0,1-.77-1.9,2.82,2.82,0,0,1,.77-2,2.4,2.4,0,0,1,1.82-.84,2.53,2.53,0,0,1,1.93.79A2.6,2.6,0,0,1,479.61,93.24Z"/><path class="cls-1" d="M504.75,102.75a5.12,5.12,0,0,0-1.76.67,4,4,0,0,0-1.43,1.78q-1.21,2.76-2.51,5.75c-.87,2-1.76,4.1-2.7,6.3-.27.63-.57,1.38-.87,2.24s-.6,1.7-.86,2.49H493c-1.31-3.22-2.51-6.17-3.61-8.82s-2.24-5.38-3.42-8.17a3,3,0,0,0-1.33-1.47,5.4,5.4,0,0,0-1.84-.67v-1.36h9.4v1.44a7.89,7.89,0,0,0-1.55.26c-.61.16-.92.37-.92.65a1.2,1.2,0,0,0,.1.32c.07.17.14.36.21.58q.84,2.1,2.38,5.87c1,2.51,1.86,4.53,2.5,6.06l1.87-4.4c.75-1.75,1.55-3.71,2.42-5.88l.39-1a2.78,2.78,0,0,0,.18-1,.79.79,0,0,0-.33-.62,3.43,3.43,0,0,0-.82-.49,5.86,5.86,0,0,0-.92-.31l-.75-.14v-1.32h7.77Z"/><path class="cls-1" d="M523.68,117a10.36,10.36,0,0,1-3.42,3.87,8.62,8.62,0,0,1-4.92,1.44,10.12,10.12,0,0,1-4.3-.86,8.45,8.45,0,0,1-3-2.35,9.88,9.88,0,0,1-1.78-3.46,14.32,14.32,0,0,1-.59-4.18,12.27,12.27,0,0,1,.63-3.88,10.91,10.91,0,0,1,1.84-3.43,9,9,0,0,1,2.91-2.36,8.4,8.4,0,0,1,3.91-.89,9.36,9.36,0,0,1,3.81.7,6.75,6.75,0,0,1,2.57,1.91,7.73,7.73,0,0,1,1.41,2.72,11.85,11.85,0,0,1,.46,3.4V111H509.74a15.68,15.68,0,0,0,.38,3.63,8.62,8.62,0,0,0,1.2,2.87,5.79,5.79,0,0,0,2.1,1.89,6.52,6.52,0,0,0,3.09.69,5.7,5.7,0,0,0,3.16-.86,8.52,8.52,0,0,0,2.57-3.1Zm-4.55-7.74a17,17,0,0,0-.2-2.47,7.49,7.49,0,0,0-.63-2.19,4,4,0,0,0-1.29-1.54,3.52,3.52,0,0,0-2.12-.6,4.42,4.42,0,0,0-3.6,1.8,8.35,8.35,0,0,0-1.55,5Z"/><path class="cls-2" d="M204.34,69.09,180.07,17.48a1.49,1.49,0,0,1-.19-.61c0-1.46,3.38-1.46,6.75-1.46,3.77,0,7.57,0,8.15,1.35l11.82,27.8,11.79-27.8c.61-1.35,4.34-1.35,8.14-1.35,3.38,0,6.76,0,6.76,1.46a1.63,1.63,0,0,1-.16.58L208.91,69.09c-.43.77-1.46.81-2.27.81S204.72,69.86,204.34,69.09Z"/><path class="cls-2" d="M239.19,52.5V17.06c0-1.57,3.31-1.57,6.57-1.57s6.6,0,6.6,1.61V48.62c0,4.8,3.42,7.72,8.49,7.72,4.57,0,8.49-2.57,8.49-7.72V17.06c0-1.57,3.34-1.57,6.6-1.57s6.6,0,6.6,1.61V52.5c0,9.41-8.14,17.28-21.69,17.28C246.84,69.78,239.19,61.57,239.19,52.5Z"/><path class="cls-2" d="M290.22,67.9V17a1,1,0,0,1,1-1.08l35,0c1.65,0,1.69,3.15,1.69,6.34s0,6.41-1.69,6.41H303.39V36h18.93c1.57,0,1.61,2.8,1.61,5.57s0,5.6-1.61,5.6H303.39v9.07l22.84,0c1.69,0,1.73,3.18,1.73,6.41s0,6.37-1.69,6.37h-35A1.09,1.09,0,0,1,290.22,67.9Z"/><path class="cls-2" d="M351.55,67.78V17.06c0-1.53,3.26-1.57,6.6-1.57s6.57,0,6.57,1.57v18h23v-18c0-1.53,3.3-1.57,6.56-1.57s6.61,0,6.61,1.57V67.75c0,1.57-3.3,1.61-6.61,1.61s-6.56,0-6.56-1.58v-20h-23V67.75c0,1.57-3.26,1.61-6.57,1.61S351.55,69.32,351.55,67.78Z"/><path class="cls-2" d="M407.48,49.24c0-11.44,7.72-20.16,19.16-20.16,12,0,17.43,9,17.43,20.35,0,1.73,0,3.46-1.19,3.46H420.27c.53,3.61,3.83,6,7.71,6a18.07,18.07,0,0,0,9.72-2.69,1.11,1.11,0,0,1,.57-.15c1.12,0,2,1.84,2.73,3.91a14.52,14.52,0,0,1,1.23,4.53c0,.66-.16,1.16-.62,1.39a28.5,28.5,0,0,1-15.12,4C414.77,69.78,407.48,60.83,407.48,49.24Zm19.16-9.52a6.54,6.54,0,0,0-6.53,5.91h11.67C431.71,42.56,430.55,39.72,426.64,39.72Z"/><path class="cls-2" d="M450.14,59.15c0-7.18,6.18-11.41,14.9-13.1l5.6-1.07V43.06c0-1.77-1.11-3-3.53-3a22,22,0,0,0-10.44,2.88,1,1,0,0,1-.47.12c-1.11,0-2.22-2.07-3.14-4.3a12.21,12.21,0,0,1-1.19-4,1.59,1.59,0,0,1,.8-1.54,30.34,30.34,0,0,1,15.09-4.11c9.72,0,15.71,4.15,15.71,15V67.82c0,1.54-3,1.54-5.92,1.54s-6,0-6-1.54V64.44c-2.22,3.23-5.37,5.34-10.59,5.34C454.94,69.78,450.14,66.36,450.14,59.15ZM470.64,55V52.58l-4.49.92A3.31,3.31,0,0,0,463,56.61a2.58,2.58,0,0,0,2.88,2.5A4.37,4.37,0,0,0,470.64,55Z"/><path class="cls-2" d="M492.84,58.19V12.76c0-1.57,3.23-1.57,6.46-1.57s6.45,0,6.45,1.57V55.34a2,2,0,0,0,2.18,2.27,7.85,7.85,0,0,0,2.19-.31,1,1,0,0,1,.35,0c1.38,0,1.38,2.77,1.38,5.57,0,3,0,6-1.38,6.3a33,33,0,0,1-6.64.65C496.38,69.78,492.84,64.52,492.84,58.19Z"/><path class="cls-2" d="M521.65,54.5V41H516c-1.57,0-1.57-2.8-1.57-5.56s0-5.57,1.57-5.57h5.65v-10c0-1.57,3.26-1.57,6.45-1.57s6.45,0,6.45,1.57v10h8c1.66,0,1.66,2.76,1.66,5.57s0,5.56-1.66,5.56h-8V54.5c0,2,.81,3.84,3.22,3.84a10.72,10.72,0,0,0,5.19-1.5,1.11,1.11,0,0,1,.57-.15c1.16,0,2,1.92,2.81,4.18a16.58,16.58,0,0,1,1.23,4.84,1.52,1.52,0,0,1-.58,1.42,21.94,21.94,0,0,1-11.37,2.65C526.18,69.78,521.65,64.25,521.65,54.5Z"/><path class="cls-2" d="M553.26,67.78V12.65c0-1.58,3.22-1.58,6.49-1.58s6.48,0,6.48,1.58V34.53A12.36,12.36,0,0,1,576.49,29c8.1,0,13.13,6.15,13.13,16.4V67.78c0,1.58-3.23,1.58-6.49,1.58s-6.49,0-6.49-1.58V46.28c0-2.69-1.54-5-4.69-5-3.64,0-5.72,2.81-5.72,6.11V67.78c0,1.58-3.3,1.58-6.52,1.58S553.26,69.36,553.26,67.78Z"/></svg>